<?xml version="1.0" encoding="UTF-8" standalone="no"?>
<!DOCTYPE svg PUBLIC "-//W3C//DTD SVG 1.1//EN" "http://www.w3.org/Graphics/SVG/1.1/DTD/svg11.dtd">
<svg width="100%" height="100%" viewBox="0 0 145 113" version="1.1" xmlns="http://www.w3.org/2000/svg" xmlns:xlink="http://www.w3.org/1999/xlink" xml:space="preserve" xmlns:serif="http://www.serif.com/" style="fill-rule:evenodd;clip-rule:evenodd;stroke-miterlimit:10;">
    <g transform="matrix(1,0,0,1,-1162.13,-1463.18)">
        <g transform="matrix(0.585183,0,0,0.560218,481.819,638.951)">
            <g>
                <g transform="matrix(0.216276,-1.25742,1.25742,0.216276,1420.95,1552.8)">
                    <path d="M0,-112.99C0,-112.99 7.27,-57.407 -29.63,-57.351C-40.239,-57.336 -46.747,-59.497 -50.635,-62.586C-60.008,-70.028 -52.361,-85.011 -40.738,-82.158C-28.577,-79.174 -13.835,-70.114 -24.579,-42.861C-41.474,0 -86.18,-3.886 -86.18,-3.886" style="fill:none;fill-rule:nonzero;stroke:rgb(255,50,88);stroke-width:1.7px;stroke-dasharray:4.76,4.76;"/>
                </g>
                <g transform="matrix(1,0,0,1,3.5067,6.62929)">
                    <g>
                        <g transform="matrix(-1.57435,0.644527,0.644527,1.57435,1190.55,1570.56)">
                            <path d="M0,-48.876L-50.365,-18.939L-32.644,0L0,-48.876Z" style="fill:rgb(227,227,227);fill-rule:nonzero;"/>
                        </g>
                        <g transform="matrix(-1.57435,0.644527,0.644527,1.57435,1245.93,1458.04)">
                            <path d="M0,25.335L-18.294,11.673L55.187,0L0,25.335Z" style="fill:rgb(227,227,227);fill-rule:nonzero;"/>
                        </g>
                        <g transform="matrix(-1.57435,0.644527,0.644527,1.57435,1254.19,1521.33)">
                            <path d="M0,-1.525L-8.975,4.95L-4.813,-6.475L0,-1.525Z" style="fill:rgb(206,216,210);fill-rule:nonzero;"/>
                        </g>
                        <g transform="matrix(1.69971,0.0704548,-0.0704548,1.69971,1261.03,1545.27)">
                            <path d="M-61.154,-27.853L-0.567,-27.853L5.664,-13.163L-3.182,-21.663L-61.154,-27.853Z" style="fill:rgb(255,50,88);fill-rule:nonzero;"/>
                        </g>
                    </g>
                </g>
            </g>
        </g>
    </g>
</svg>
