<?xml version="1.0" encoding="UTF-8" standalone="no"?>
<!DOCTYPE svg PUBLIC "-//W3C//DTD SVG 1.1//EN" "http://www.w3.org/Graphics/SVG/1.1/DTD/svg11.dtd">
<svg width="100%" height="100%" viewBox="0 0 1267 822" version="1.1" xmlns="http://www.w3.org/2000/svg" xmlns:xlink="http://www.w3.org/1999/xlink" xml:space="preserve" xmlns:serif="http://www.serif.com/" style="fill-rule:evenodd;clip-rule:evenodd;stroke-miterlimit:10;">
    <g transform="matrix(1,0,0,1,-607.696,-980.648)">
        <g transform="matrix(1,0,0,1,73.6678,-1372.01)">
            <g transform="matrix(1.09804,0,0,1.09804,-895.297,1133.17)">
                <path d="M2375.37,1702.43L1381.21,1702.43C1337.3,1702.43 1301.7,1666.83 1301.7,1622.92L1301.7,1190.11C1301.7,1145.2 1338.87,1109.21 1383.75,1110.64L2377.91,1142.44C2420.81,1143.81 2454.88,1178.98 2454.88,1221.91L2454.88,1622.92C2454.88,1666.83 2419.28,1702.43 2375.37,1702.43Z" style="fill:rgb(255,50,88);"/>
                <path d="M2033.9,1699.16L2166.01,1858.79L2217.05,1699.16L2033.9,1699.16Z" style="fill:rgb(255,50,88);"/>
            </g>
            <g transform="matrix(0.530334,-0.0942611,0.0942611,0.530334,-318.906,2024.11)">
                <path d="M1756.36,1537.93L1534.04,1422.78L1534.04,1386.27L1756.36,1270.38L1756.36,1330L1604.53,1404.03L1756.36,1478.56L1756.36,1537.93Z" style="fill:white;fill-rule:nonzero;"/>
                <path d="M1973.92,1236.9L1859.89,1589.26L1800.65,1588.75L1916.37,1233.8L1973.92,1236.9Z" style="fill:white;fill-rule:nonzero;"/>
                <path d="M2015.03,1484.35L2152.14,1421.05L2015.03,1340.57L2015.03,1282.87L2212.51,1408.63L2212.51,1442.14L2015.03,1541.81L2015.03,1484.35Z" style="fill:white;fill-rule:nonzero;"/>
            </g>
            <g transform="matrix(0.613415,0,0,0.613415,980.362,2083.96)">
                <g transform="matrix(18.5388,0,0,18.5388,874.89,1151.03)">
                    <path d="M0,-18.502C-1.472,-18.502 -1.963,-18.105 -1.963,-17.007L-1.963,-12.101C-1.963,-10.186 -2.757,-9.602 -4.089,-9.228C-2.757,-8.877 -1.963,-8.293 -1.963,-6.401L-1.963,-1.495C-1.963,-0.398 -1.449,-0 0,-0L0,2.149C-3.715,2.149 -4.767,0.957 -4.767,-1.519L-4.767,-6.168C-4.767,-7.499 -5.116,-8.013 -6.331,-8.013L-6.331,-10.466C-5.116,-10.466 -4.767,-11.003 -4.767,-12.335L-4.767,-16.984C-4.767,-19.483 -3.715,-20.651 0,-20.651L0,-18.502Z" style="fill:rgb(241,242,242);fill-rule:nonzero;"/>
                </g>
                <g transform="matrix(18.5388,0,0,18.5388,1101.83,1122.89)">
                    <path d="M0,-15.466L0,-10.817C0,-9.486 0.351,-8.948 1.589,-8.948L1.589,-6.495C0.351,-6.495 0,-5.981 0,-4.65L0,-0.001C0,2.475 -1.051,3.667 -4.765,3.667L-4.765,1.518C-3.316,1.518 -2.803,1.12 -2.803,0.023L-2.803,-4.883C-2.803,-6.775 -2.009,-7.36 -0.677,-7.71C-2.009,-8.084 -2.803,-8.668 -2.803,-10.583L-2.803,-15.489C-2.803,-16.587 -3.293,-16.984 -4.765,-16.984L-4.765,-19.133C-1.051,-19.133 0,-17.966 0,-15.466" style="fill:rgb(241,242,242);fill-rule:nonzero;"/>
                </g>
            </g>
            <g transform="matrix(0.501011,0,0,0.501011,697.3,2098.62)">
                <g transform="matrix(12.8096,0,0,12.8096,758.423,1679.95)">
                    <path d="M0,-19.611L-9.595,-2.419C-9.595,-2.419 -12.897,-3.419 -14.438,-3.248C-15.974,-3.077 -19.695,0 -19.695,0L-24.595,-6.934C-24.595,-6.934 -20.477,-9.697 -19.855,-11.091C-19.27,-12.404 -19.485,-16.417 -19.485,-16.417L0,-19.611Z" style="fill:rgb(255,250,250);fill-rule:nonzero;"/>
                </g>
                <g transform="matrix(-10.4613,7.39239,7.39239,10.4613,691.18,1517.01)">
                    <path d="M-8.588,-2.728L0.867,-2.728" style="fill:none;fill-rule:nonzero;stroke:white;stroke-width:0.49px;"/>
                </g>
                <g transform="matrix(12.8096,0,0,12.8096,1037.39,1037.49)">
                    <path d="M0,13.331C-0.345,12.987 -0.896,12.987 -1.241,13.331C-1.586,13.675 -1.586,14.227 -1.241,14.572L0.936,16.748C1.104,16.917 1.331,17.002 1.553,17.002C1.773,17.002 2.001,16.917 2.169,16.748C2.514,16.404 2.514,15.852 2.169,15.508L0,13.331ZM-17.073,-1.273C-16.904,-1.105 -16.678,-1.02 -16.457,-1.02C-16.235,-1.02 -16.009,-1.105 -15.839,-1.273C-15.495,-1.618 -15.495,-2.17 -15.839,-2.515L-18.016,-4.691C-18.36,-5.035 -18.912,-5.035 -19.257,-4.691C-19.601,-4.346 -19.601,-3.794 -19.257,-3.45L-17.073,-1.273ZM-0.618,-1.014C-0.396,-1.014 -0.169,-1.098 0,-1.267L2.176,-3.443C2.521,-3.788 2.521,-4.34 2.176,-4.684C1.832,-5.029 1.279,-5.029 0.936,-4.684L-1.241,-2.508C-1.586,-2.164 -1.586,-1.611 -1.241,-1.267C-1.065,-1.098 -0.845,-1.014 -0.618,-1.014M-17.073,13.331L-19.25,15.508C-19.595,15.852 -19.595,16.404 -19.25,16.748C-19.081,16.917 -18.854,17.002 -18.633,17.002C-18.412,17.002 -18.185,16.917 -18.016,16.748L-15.839,14.572C-15.495,14.227 -15.495,13.675 -15.839,13.331C-16.177,12.987 -16.735,12.987 -17.073,13.331M5.736,5.152L2.663,5.152C2.183,5.152 1.786,5.541 1.786,6.029C1.786,6.51 2.176,6.906 2.663,6.906L5.736,6.906C6.217,6.906 6.613,6.516 6.613,6.029C6.613,5.548 6.224,5.152 5.736,5.152M-18.86,6.029C-18.86,5.548 -19.25,5.152 -19.737,5.152L-22.811,5.152C-23.291,5.152 -23.687,5.541 -23.687,6.029C-23.687,6.51 -23.298,6.906 -22.811,6.906L-19.737,6.906C-19.25,6.906 -18.86,6.516 -18.86,6.029M-8.537,-4.294C-8.057,-4.294 -7.66,-4.684 -7.66,-5.171L-7.66,-8.244C-7.66,-8.725 -8.05,-9.122 -8.537,-9.122C-9.024,-9.122 -9.414,-8.731 -9.414,-8.244L-9.414,-5.171C-9.414,-4.684 -9.018,-4.294 -8.537,-4.294M-7.66,1.325C-7.66,0.844 -8.05,0.448 -8.537,0.448C-11.63,0.448 -14.15,2.962 -14.15,6.061C-14.15,6.542 -13.761,6.938 -13.273,6.938C-12.792,6.938 -12.396,6.549 -12.396,6.061C-12.396,3.93 -10.661,2.202 -8.537,2.202C-8.05,2.202 -7.66,1.812 -7.66,1.325M-0.761,6.035C-0.761,8.134 -1.592,10.038 -2.943,11.434C-3.97,12.499 -4.633,13.857 -4.854,15.306C-4.951,15.93 -5.49,16.391 -6.127,16.391L-10.954,16.391C-11.584,16.391 -12.13,15.936 -12.221,15.312C-12.448,13.864 -13.117,12.486 -14.144,11.428C-15.469,10.05 -16.294,8.179 -16.313,6.12C-16.359,1.793 -12.916,-1.709 -8.589,-1.741C-4.269,-1.774 -0.761,1.722 -0.761,6.035M-4.937,18.47L-4.937,19.393C-4.937,20.126 -5.478,20.737 -6.179,20.841L-6.406,21.68C-6.529,22.134 -6.939,22.453 -7.413,22.453L-9.667,22.453C-10.142,22.453 -10.551,22.134 -10.675,21.68L-10.896,20.841C-11.604,20.731 -12.143,20.126 -12.143,19.386L-12.143,18.463C-12.143,17.97 -11.746,17.573 -11.253,17.573L-5.828,17.573C-5.334,17.58 -4.937,17.976 -4.937,18.47" style="fill:rgb(255,251,251);fill-rule:nonzero;"/>
                </g>
                <g transform="matrix(-6.79078,10.8614,10.8614,6.79078,1225.44,1464.31)">
                    <path d="M-32.983,-28.732C-18.444,-9.034 4.858,-0.581 16.167,-28.732" style="fill:none;fill-rule:nonzero;stroke:rgb(255,253,252);stroke-width:0.65px;"/>
                </g>
                <g transform="matrix(-4.05563,-12.1506,-12.1506,4.05563,1193.07,949.916)">
                    <rect x="-0.869" y="0.627" width="4.722" height="4.721" style="fill:rgb(254,253,253);stroke:rgb(254,254,254);stroke-width:0.92px;"/>
                </g>
                <g transform="matrix(2.56119,-12.5509,-12.5509,-2.56119,819.559,1484.48)">
                    <rect x="0.425" y="-0.52" width="4.723" height="4.722" style="fill:rgb(254,253,253);stroke:rgb(253,253,253);stroke-width:0.92px;"/>
                </g>
                <g transform="matrix(8.84645,-9.26422,-9.26422,-8.84645,1106.12,1393.65)">
                    <rect x="0.977" y="-2.283" width="4.723" height="4.721" style="fill:rgb(254,253,253);stroke:rgb(254,254,254);stroke-width:0.92px;"/>
                </g>
                <g transform="matrix(12.0638,-4.30713,-4.30713,-12.0638,1170.38,1365.01)">
                    <path d="M-0.493,2.847L16.444,2.847" style="fill:none;fill-rule:nonzero;stroke:rgb(253,253,253);stroke-width:0.49px;"/>
                </g>
                <g transform="matrix(12.5518,2.55677,2.55677,-12.5518,1352.14,1275.47)">
                    <path d="M0.281,-0.028C-0.497,-0.028 -1.127,0.602 -1.127,1.38C-1.126,2.158 -0.496,2.788 0.281,2.787C1.06,2.788 1.689,2.157 1.69,1.379C1.69,0.602 1.059,-0.028 0.281,-0.028" style="fill:white;fill-rule:nonzero;"/>
                </g>
                <g transform="matrix(2.56145,-12.5509,-12.5509,-2.56145,1189.72,1533.93)">
                    <path d="M-6.776,8.298L10.163,8.298" style="fill:none;fill-rule:nonzero;stroke:rgb(253,252,252);stroke-width:0.49px;"/>
                </g>
                <g transform="matrix(12.5509,2.56114,2.56114,-12.5509,1064.27,1618.11)">
                    <path d="M0.282,-0.029C-0.496,-0.029 -1.126,0.602 -1.126,1.379C-1.126,2.157 -0.495,2.788 0.282,2.787C1.059,2.788 1.69,2.157 1.689,1.379C1.69,0.602 1.06,-0.029 0.282,-0.029" style="fill:rgb(254,253,253);fill-rule:nonzero;"/>
                </g>
            </g>
        </g>
    </g>
</svg>
